<svg width="24" height="24" viewBox="0 0 24 24" fill="none" xmlns="http://www.w3.org/2000/svg">
<path d="M20.52 3.449C18.24 1.245 15.24 0 12.045 0C5.463 0 0.12 5.343 0.12 11.925C0.12 14.025 0.705 16.065 1.8 17.85L0 24L6.3 22.245C8.01 23.25 9.99 23.775 12.045 23.775C18.627 23.775 23.97 18.432 23.97 11.85C23.97 8.7 22.8 5.7 20.52 3.449ZM12.045 21.75C10.17 21.75 8.34 21.255 6.75 20.325L6.375 20.1L2.76 21.075L3.75 17.55L3.495 17.175C2.475 15.525 1.935 13.65 1.935 11.775C1.935 6.375 6.375 1.935 11.775 1.935C14.4 1.935 16.875 2.85 18.75 4.725C20.625 6.6 21.54 9.075 21.54 11.7C21.54 17.1 17.1 21.54 11.7 21.54L12.045 21.75Z" fill="white"/>
<path d="M17.472 14.382C17.367 14.382 17.261 14.382 17.261 14.382C16.988 14.276 15.717 13.693 15.717 13.693C15.444 13.587 15.171 13.481 14.898 13.375C14.625 13.269 14.352 13.163 14.079 13.057C13.806 12.951 13.533 12.845 13.26 12.739C12.987 12.633 12.714 12.527 12.441 12.421C12.168 12.315 11.895 12.209 11.622 12.103C11.349 11.997 11.076 11.891 10.803 11.785C10.53 11.679 10.257 11.573 9.984 11.467C9.711 11.361 9.438 11.255 9.165 11.149C8.892 11.043 8.619 10.937 8.346 10.831C8.073 10.725 7.8 10.619 7.527 10.513C7.254 10.407 6.981 10.301 6.708 10.195C6.435 10.089 6.162 9.983 5.889 9.877C5.616 9.771 5.343 9.665 5.07 9.559C4.797 9.453 4.524 9.347 4.251 9.241C3.978 9.135 3.705 9.029 3.432 8.923C3.159 8.817 2.886 8.711 2.613 8.605C2.34 8.499 2.067 8.393 1.794 8.287C1.521 8.181 1.248 8.075 0.975 7.969C0.702 7.863 0.429 7.757 0.156 7.651" fill="white"/>
</svg>
